# Blender 3.5.0
# www.blender.org
mtllib Arrow.mtl
o Cube
v -1.787031 -0.360361 -0.428422
v -1.787031 0.360361 -0.428422
v 1.787031 -0.360361 -0.428422
v 1.787031 0.360361 -0.428422
v 0.000000 -0.360361 0.161842
v 0.000000 0.360361 0.161842
v -2.076982 -0.360361 0.821311
v -2.227780 -0.360361 0.677953
v -2.172440 -0.360361 0.825999
v -2.227636 -0.360361 0.773526
v -2.227780 0.360361 0.677953
v -2.076982 0.360361 0.821311
v -2.227636 0.360361 0.773526
v -2.172440 0.360361 0.825999
v 2.227780 -0.360361 0.677953
v 2.076982 -0.360361 0.821311
v 2.227636 -0.360361 0.773526
v 2.172440 -0.360361 0.825999
v 2.076982 0.360361 0.821311
v 2.227780 0.360361 0.677953
v 2.172440 0.360361 0.825999
v 2.227636 0.360361 0.773526
v -0.307816 -0.360361 -1.888115
v 0.307816 -0.360361 -1.888115
v 0.000000 -0.360361 -1.759414
v -0.112669 -0.360361 -1.999297
v 0.112669 -0.360361 -1.999297
v 0.307816 0.360361 -1.888115
v -0.307816 0.360361 -1.888115
v 0.000000 0.360361 -1.759414
v 0.112669 0.360361 -1.999297
v -0.112669 0.360361 -1.999297
vn 0.3026 -0.0000 0.9531
vn -0.7024 -0.0000 -0.7118
vn -0.3026 -0.0000 0.9531
vn 0.9290 -0.0000 -0.3701
vn -0.0000 1.0000 -0.0000
vn -0.9290 -0.0000 -0.3701
vn -0.0000 -1.0000 -0.0000
vn 0.0491 -0.0000 0.9988
vn -0.6890 -0.0000 0.7248
vn -1.0000 -0.0000 0.0015
vn -0.0491 -0.0000 0.9988
vn 0.6890 -0.0000 0.7248
vn 1.0000 -0.0000 0.0015
vn 0.7024 -0.0000 -0.7118
vn 0.4950 -0.0000 -0.8689
vn -0.0000 -0.0000 -1.0000
vn -0.4950 -0.0000 -0.8689
vt 0.375000 0.250000
vt 0.125000 0.500000
vt 0.625000 0.250000
vt 0.875000 0.500000
vt 0.375000 0.500000
vt 0.625000 0.500000
vt 0.375000 0.875000
vt 0.250000 0.750000
vt 0.625000 0.875000
vt 0.750000 0.750000
vt 0.375000 0.988741
vt 0.136259 0.750000
vt 0.375000 0.027648
vt 0.125000 0.722352
vt 0.375000 1.000000
vt 0.375000 0.000000
vt 0.130686 0.746461
vt 0.375000 0.015805
vt 0.126565 0.736341
vt 0.875000 0.722352
vt 0.625000 0.027648
vt 0.863741 0.750000
vt 0.625000 0.988741
vt 0.873435 0.736341
vt 0.625000 0.015805
vt 0.869314 0.746461
vt 0.625000 1.000000
vt 0.625000 0.000000
vt 0.375000 0.722352
vt 0.363741 0.750000
vt 0.375000 0.761259
vt 0.373435 0.736341
vt 0.375000 0.734195
vt 0.369314 0.746461
vt 0.375000 0.756436
vt 0.636259 0.750000
vt 0.625000 0.761259
vt 0.625000 0.722352
vt 0.630686 0.746461
vt 0.625000 0.756436
vt 0.626565 0.736341
vt 0.625000 0.734195
vt 0.375000 0.353469
vt 0.228469 0.500000
vt 0.271531 0.500000
vt 0.250000 0.525959
vt 0.375000 0.396531
vt 0.250000 0.536958
vt 0.239273 0.500000
vt 0.375000 0.364273
vt 0.250000 0.516458
vt 0.375000 0.385727
vt 0.728469 0.500000
vt 0.750000 0.525959
vt 0.625000 0.396531
vt 0.771531 0.500000
vt 0.625000 0.353469
vt 0.750000 0.536958
vt 0.750000 0.516458
vt 0.625000 0.385727
vt 0.760727 0.500000
vt 0.625000 0.364273
s 0
f 5/7/1 6/9/1 12/23/1 7/11/1
f 1/1/2 2/3/2 29/57/2 23/43/2
f 16/31/3 19/37/3 6/9/3 5/7/3
f 3/5/4 4/6/4 20/38/4 15/29/4
f 4/6/5 28/53/5 30/58/5 6/10/5 19/36/5 21/39/5 22/41/5 20/38/5
f 8/13/6 11/21/6 2/3/6 1/1/6
f 30/58/5 29/56/5 2/4/5 11/20/5 13/24/5 14/26/5 12/22/5 6/10/5
f 25/48/7 24/45/7 3/5/7 15/29/7 17/32/7 18/34/7 16/30/7 5/8/7
f 7/11/8 12/23/8 14/27/8 9/15/8
f 9/16/9 14/28/9 13/25/9 10/18/9
f 10/18/10 13/25/10 11/21/10 8/13/10
f 19/37/11 16/31/11 18/35/11 21/40/11
f 21/40/12 18/35/12 17/33/12 22/42/12
f 22/42/13 17/33/13 15/29/13 20/38/13
f 24/47/14 28/55/14 4/6/14 3/5/14
f 23/44/7 26/49/7 25/48/7
f 26/49/7 27/51/7 25/48/7
f 27/51/7 24/46/7 25/48/7
f 28/54/5 31/59/5 30/58/5
f 31/59/5 32/61/5 30/58/5
f 32/61/5 29/56/5 30/58/5
f 28/55/15 24/47/15 27/52/15 31/60/15
f 31/60/16 27/52/16 26/50/16 32/62/16
f 32/62/17 26/50/17 23/43/17 29/57/17
f 1/2/7 23/44/7 25/48/7 5/8/7 7/12/7 9/17/7 10/19/7 8/14/7
